<?xml version="1.0" encoding="UTF-8" standalone="no"?>
<!DOCTYPE svg PUBLIC "-//W3C//DTD SVG 1.1//EN" "http://www.w3.org/Graphics/SVG/1.1/DTD/svg11.dtd">
<svg width="100%" height="100%" viewBox="0 0 375 375" version="1.1" xmlns="http://www.w3.org/2000/svg" xmlns:xlink="http://www.w3.org/1999/xlink" xml:space="preserve" style="fill-rule:evenodd;clip-rule:evenodd;stroke-linejoin:round;stroke-miterlimit:2;">
    <g transform="matrix(1,0,0,1,-3567.5,-1205.5)">
        <circle cx="3755" cy="1393" r="156" style="fill:white;"/>
    </g>
    <g transform="matrix(1,0,0,1,146.537,278.718)">
        <path d="M0,-182.437C-6.374,-186.794 -14.658,-187.193 -21.423,-183.471C-28.187,-179.747 -32.282,-172.535 -32.012,-164.819C-31.25,-142.17 -28.325,-119.643 -23.278,-97.55C-36.063,-92.643 -48.56,-87.007 -60.701,-80.668C-67.415,-77.148 -71.493,-70.07 -71.174,-62.497C-70.853,-54.924 -66.191,-48.215 -59.204,-45.272C-52.218,-42.334 -44.162,-43.687 -38.521,-48.754C-31.059,-55.477 -23.223,-61.771 -15.05,-67.611C-7.698,-45.115 2.62,-23.701 15.633,-3.933C18.172,-0.075 23.238,1.199 27.3,-1C31.363,-3.197 33.069,-8.135 31.232,-12.372C20.759,-34.871 13.455,-58.713 9.532,-83.219C22.684,-90.594 36.434,-96.841 50.64,-101.894C48.542,-54.449 42.697,-7.245 33.162,39.277C32.014,44.93 35.559,50.472 41.168,51.802C46.781,53.129 52.431,49.765 53.94,44.201C68.066,-8.435 82.194,-61.074 96.321,-113.71C106.717,-115.436 117.205,-116.546 127.73,-117.032C128.598,-117.141 129.256,-117.859 129.289,-118.731C129.322,-119.603 128.717,-120.37 127.862,-120.542C118.034,-121.176 108.186,-121.403 98.34,-121.226C104.344,-143.6 110.349,-165.974 116.354,-188.348C119.835,-201.28 115.358,-215.049 104.937,-223.462C94.515,-231.874 80.113,-233.346 68.205,-227.214C56.299,-221.084 49.13,-208.507 49.923,-195.138C51.467,-169.201 51.888,-143.21 51.184,-117.237C36.188,-114.961 21.352,-111.735 6.766,-107.576C5.521,-126.021 6.184,-144.546 8.745,-162.855C9.757,-170.509 6.374,-178.082 0,-182.437M218.979,-91.219C218.979,7.097 139.278,86.798 40.963,86.798C-57.353,86.798 -137.054,7.097 -137.054,-91.219C-137.054,-189.534 -57.353,-269.235 40.963,-269.235C139.278,-269.235 218.979,-189.534 218.979,-91.219" style="fill:rgb(28,28,28);fill-rule:nonzero;"/>
    </g>
</svg>